<svg xmlns="http://www.w3.org/2000/svg" width="334" height="140" fill="none"><path fill="#8A1114" d="M87.395 140c39.148 0 70.883-1.853 70.883-4.138s-31.735-4.139-70.883-4.139-70.882 1.853-70.882 4.139c0 2.285 31.735 4.138 70.882 4.138" opacity=".4"/><path fill="#263238" d="M66.7 27.434c-2.848 2.347-5.63 6.13-4 10.236s12.064 4.519 14.258 2.83c2.852-2.194.333-11.962-1.89-12.02-.168-3.623-5.988-3.01-8.368-1.046"/><path fill="#FFB573" d="M62.711 66.972s1.145 20.816 2.406 32.087c.128 10.583 2.559 34.492 2.559 34.492h2.672c.45-11.863 3.751-22.94 1.558-33.403 5.118-20.546 1.612-33.162 1.612-33.162z"/><path fill="#FFB573" d="M65.621 66.986s5.502 23.09 7.008 32.924c1.587 10.332 3.949 30.38 3.84 33.634h2.306s3.875-20.283.289-33.268c2.957-29.247-4.34-33.268-4.34-33.268zM52.428 40.28c-.172-1.246-2.46-1.352-2.46-1.352l-1.098-.552a.87.87 0 0 0-1.18.263l-.366.607a1.1 1.1 0 0 0 .406 1.367l.332.241c.566.405 1.236.64 1.93.677l1.013.055a1.9 1.9 0 0 0 .658-.08 1.1 1.1 0 0 0 .754-1.226h.01Z"/><path fill="#FFB573" d="M64.48 47.574a6 6 0 0 1-.314.303l-.288.256c-.19.161-.388.31-.582.46a18 18 0 0 1-1.21.82c-.829.499-1.7.924-2.603 1.272a16.1 16.1 0 0 1-5.637 1.097h-.168a2.2 2.2 0 0 1-.764-.158 2.4 2.4 0 0 1-.732-.475 3.2 3.2 0 0 1-.661-.936 7 7 0 0 1-.508-1.546 18 18 0 0 1-.366-2.786 36 36 0 0 1 .11-5.381.819.819 0 0 1 1.627-.022v.022c.197 1.703.424 3.433.73 5.089q.204 1.204.56 2.372.142.48.388.914c.065.106.131.157.102.12a.45.45 0 0 0-.175-.116.7.7 0 0 0-.187-.055h-.099a16 16 0 0 0 2.333-.387q1.141-.286 2.23-.732a14.6 14.6 0 0 0 2.08-1.096 14 14 0 0 0 1.411-.998l.212-.176.161-.143.095-.084a1.642 1.642 0 0 1 2.252 2.388l.004-.022Z"/><path fill="#E0E0E0" d="M66.28 43.516c-2.893-.483-5.928 1.484-7.5 3.084-.811 2.442 1.788 5.41 1.788 5.41s3.703-2.273 5.038-3.827c1.334-1.553 2.34-4.39.672-4.668Z"/><path fill="#263238" d="M75.236 66.708s4.08 2.896 4.848 12.521c.307 3.791.859 18.916 2.021 25.423-4.186 2.99-16.718 2.581-18.68.833.555-13.16-4.476-30.617-.827-38.645 6.04-.742 12.638-.132 12.638-.132"/><path fill="#000" d="M71.098 94.313c.055-5.53-.76-13.142-3.236-17.654.845 5.63 3.236 17.654 3.236 17.654" opacity=".2"/><path fill="#E0E0E0" d="M60.682 47.976c0 3.133-2.497 4.778.33 7.19.167 2.706.365 7.55 1.195 11.963.859 1.195 7.14 1.096 13.665-.318-.852-3.784-.537-9.948 1.697-18.378a3.505 3.505 0 0 0-2.794-4.318 33 33 0 0 0-1.689-.256c-2.04-.3-4.1-.454-6.163-.46-.666 0-1.356.044-2.015.088a4.504 4.504 0 0 0-4.226 4.489"/><path fill="#8A1114" d="m74.014 53.416-7.66 1.734a.54.54 0 0 0-.407.647l2.48 10.95a.54.54 0 0 0 .646.408l7.66-1.734a.54.54 0 0 0 .407-.648l-2.48-10.95a.54.54 0 0 0-.646-.407m-6.334-5.978s-1.24 1.485-2.263 1.828l-.117.732a5.55 5.55 0 0 0 3.374-1.74l-.995-.82Zm-3.367-.895s-.052 1.93.482 2.873l-.398.63a5.56 5.56 0 0 1-1.382-3.54l1.297.037Z"/><path fill="#FFB573" d="M72.834 36.906c-.49 1.945-1.064 5.531.252 6.946 0 0-4.902 1.338-8.097 5.725-1.463-4.61 1.948-6.185 1.948-6.185 2.234-.366 2.263-1.997 1.956-3.561z"/><path fill="#000" d="m71.23 38.102-2.333 1.736a6.4 6.4 0 0 1 .131 1.097c.849-.059 2.055-.896 2.194-1.77a3.1 3.1 0 0 0 .007-1.063Z" opacity=".2"/><path fill="#FFB573" d="M75.108 33.44c-.94 3.152-1.268 4.508-3.246 5.747-2.976 1.861-6.58-.054-6.603-3.44 0-3.049 1.525-7.677 4.914-8.181 3.389-.505 5.89 2.72 4.935 5.874"/><path fill="#263238" d="M72.651 28.838c-.888 3.038-.127 6.215 1.686 6.58 2.519-.94 2.394-3.736 1.75-5.016-.642-1.28-2.924-3.315-3.436-1.564"/><path fill="#263238" d="M74.03 34.296c-1.4.464-1.671 1.404-1.671 1.404s.961-.68 1.883-.552a2 2 0 0 1-.212-.852m-3.499-1.152c-.062.26-.249.435-.42.395-.172-.04-.264-.292-.201-.552.062-.26.248-.439.42-.395s.249.293.201.552m-3.243-.771c-.062.26-.248.435-.42.391s-.263-.289-.201-.552.248-.435.42-.391.267.289.201.552"/><path fill="#263238" d="m67.168 31.854-.589-.34s.209.57.589.34"/><path fill="#ED893E" d="M67.903 32.797a7 7 0 0 1-1.324 1.426 1.2 1.2 0 0 0 .896.413z"/><path fill="#FFB573" d="M75.126 36.603a2.08 2.08 0 0 1-1.568.73c-.764-.021-.896-.898-.475-1.619.365-.65 1.228-1.422 1.894-1.053.665.37.668 1.35.15 1.942Z"/><path fill="#263238" d="M71.142 32.026a.17.17 0 0 1-.084-.096 1.31 1.31 0 0 0-.79-.84.16.16 0 0 1-.088-.25.15.15 0 0 1 .165-.054 1.62 1.62 0 0 1 1.012 1.05.15.15 0 0 1-.098.197.16.16 0 0 1-.117-.007m-5.031-1.21a.17.17 0 0 1-.113-.04.16.16 0 0 1 0-.224 1.55 1.55 0 0 1 1.33-.526.165.165 0 0 1 .136.183.157.157 0 0 1-.18.131 1.22 1.22 0 0 0-1.049.424.16.16 0 0 1-.124.052m4.292 1.813-.589-.344s.209.574.59.344Z"/><path fill="#FFB573" d="m70.213 58.585-2.925-.567.33 3.36s2.193-.095 3.443-1.097l.117-.438c-.135-.728-.3-.995-.965-1.258"/><path fill="#FFB573" d="m65.53 59.452.34 1.422a.84.84 0 0 0 .943.632l.819-.128-.329-3.36-1.247.454a.837.837 0 0 0-.526.98m11.223-12.88a44 44 0 0 1 2.322 5.264c.329.903.64 1.828.888 2.775.271.981.455 1.985.548 2.998q.032.401.037.819v.256a2.1 2.1 0 0 1-.307.888c-.17.263-.391.488-.65.662a3.4 3.4 0 0 1-1.04.464 7 7 0 0 1-.85.18c-.997.125-2.003.163-3.006.113a39 39 0 0 1-5.663-.68.815.815 0 0 1 .14-1.62c1.827-.033 3.677-.08 5.457-.216q1.281-.088 2.534-.365.255-.059.5-.154a.6.6 0 0 0 .22-.117.46.46 0 0 0-.168.172.9.9 0 0 0-.14.399 1 1 0 0 0 0 .073c0-.187-.032-.366-.061-.57a24.4 24.4 0 0 0-1.488-4.94 74 74 0 0 0-2.194-4.91v-.029a1.646 1.646 0 0 1 2.925-1.484z"/><path fill="#E0E0E0" d="M74.966 44.229c2.094.387 3.027 2.27 4.547 6.028-.464 2.53-4.182 3.86-4.182 3.86s-2.135-3.783-2.559-5.79.08-4.49 2.194-4.098"/><path fill="#263238" d="M70.538 133.58a.23.23 0 0 0-.24-.149l-2.48-.037a1.36 1.36 0 0 0-.73.157 9.3 9.3 0 0 1-3.737 1.335c-.526.08-.289.968.954.983 2.051.022 2.424-.132 4.175-.113 1.495.018.782.084 1.97.113.286 0 .52-.179.483-.366zm8.552 0a.23.23 0 0 0-.242-.149l-2.022-.037a1.34 1.34 0 0 0-.73.157c-.732.508-.63 1.097-2.297 1.335-.526.08-.267.968.976.983 2.051.022 1.927-.113 2.76-.113.834 0 .322.084 1.514.113.285 0 .515-.179.472-.366l-.432-1.923Z"/><path fill="#FAFAFA" d="M66.33 48.002c1.039.043 2.943.895 3.554 1.805.863-.895 4.233-2.975 4.292-5.794a2.93 2.93 0 0 0-1.495-.768s-4.497 2.175-6.35 4.757Zm-1.681-.147s-.282-2.277 2.475-4.49c-.278-.226-1.367.03-1.367.03s-3.221 1.386-3.126 4.972a2.77 2.77 0 0 1 2.018-.512"/><path fill="#8A1114" d="M64.24 48.82c-.4.187-.556 1.485 0 1.788.555.303.5-.936.822-1.36s-.124-.753-.823-.428Z"/><path fill="#8A1114" d="M64.73 49.325c-.286.365.083 1.608.697 1.605.615-.004.085-1.097.205-1.638s-.416-.61-.903.033Z"/><path fill="#8A1114" d="M64.813 50.25c-.683-1.057-.73 4.511.925 6.705-.11-2.161 1.05-5.225-.925-6.705"/><path fill="#8A1114" d="M64.751 50.202c-.303-1.075-1.828 3.634-.983 5.934.479-1.861 2.266-4.157.983-5.934"/><path fill="#263238" d="M69.847 35.641q.24-.105.457-.248a.09.09 0 0 0 .02-.096.1.1 0 0 0-.02-.029.1.1 0 0 0-.131-.022 2.63 2.63 0 0 1-2.245.326.1.1 0 0 0-.07-.002.1.1 0 0 0-.05.05.09.09 0 0 0 .054.116 2.78 2.78 0 0 0 1.985-.095"/><path fill="#8A1114" d="M59.238 38.218H40.561v.607h18.677zm-.446.607H41.007l.782.424h16.22z"/><path fill="#000" d="M58.792 38.825H41.007l.782.424h16.22z" opacity=".2"/><path fill="#263238" d="M46.545 21.961a.417.417 0 0 1-.413-.413v-1.385a.417.417 0 0 1 .413-.414.417.417 0 0 1 .413.414v1.385a.417.417 0 0 1-.413.413"/><path fill="#263238" d="M47.21 20.078v-.182a.32.32 0 0 0-.321-.322h-.687a.32.32 0 0 0-.322.322v.182c0 .178.144.322.322.322h.687a.32.32 0 0 0 .322-.322Z"/><path fill="#8A1114" d="M47.207 24.97v-3.952a.165.165 0 0 0-.16-.165h-1.003a.165.165 0 0 0-.16.165v3.952a2.1 2.1 0 0 1-.706 1.572 2.13 2.13 0 0 0-.706 1.576v10.137h4.142V28.118a2.12 2.12 0 0 0-.705-1.576 2.1 2.1 0 0 1-.702-1.572"/><path fill="#E0E0E0" d="M48.614 29.317H45.88v6.554h2.734z"/><path fill="#8A1114" d="M52.497 38.218h-.494q.248.018.494 0m2.979 0h-.497q.25.017.497 0"/><path fill="#8A1114" d="M51.835 30.486v1.664c0 1.323.753 2.424 1.707 2.559v2.925c0 .45-.438.577-.778.606h1.948c-.34-.029-.778-.157-.778-.606v-2.925c.954-.132 1.707-1.232 1.707-2.56v-1.663z" opacity=".2"/><path fill="#263238" d="M74.487 28.922c-1.463.621-6.361.811-8.28.395 1.984-2.804 6.444-3.627 8.28-.395m4.61 10.017a.1.1 0 0 1-.073-.037c-.048-.066-1.127-1.652-1.148-5.9 0-1.773-.545-3.2-1.463-3.92a1.98 1.98 0 0 0-1.736-.394.1.1 0 0 1-.07-.012.092.092 0 0 1 .029-.167 2.2 2.2 0 0 1 1.887.427c.969.757 1.528 2.238 1.539 4.062.022 4.182 1.097 5.784 1.097 5.798a.1.1 0 0 1 .015.069.1.1 0 0 1-.037.06.1.1 0 0 1-.04.014m26.307-21.522c1.02 1.396 1.016 3.572.669 4.752-1.828-.83-1.543-3.213-1.543-3.213z"/><path fill="#E0E0E0" d="m110.869 34.702 1.053 1.159 1.097 1.177a69 69 0 0 0 2.215 2.27c.366.365.731.731 1.123 1.053.391.322.731.665 1.115.961s.731.56 1.071.786q.385.258.804.454l-.559-.088a.73.73 0 0 0-.475.106s.087 0 .212-.073q.51-.313.939-.731a23 23 0 0 0 2.095-2.278 64 64 0 0 0 2.054-2.632 276 276 0 0 0 2.018-2.738l.033-.04a1.65 1.65 0 0 1 2.896 1.462 36 36 0 0 1-1.283 3.403 41 41 0 0 1-1.609 3.29 22.6 22.6 0 0 1-2.15 3.243 11 11 0 0 1-1.623 1.638 6.2 6.2 0 0 1-1.29.804 4.8 4.8 0 0 1-2.168.446 2 2 0 0 1-.41-.055l-.153-.032a10.2 10.2 0 0 1-2.307-.86 16 16 0 0 1-1.773-1.049 28 28 0 0 1-2.976-2.306 43 43 0 0 1-2.607-2.49 47 47 0 0 1-1.21-1.309 47 47 0 0 1-1.18-1.39 3.293 3.293 0 0 1 .57-4.365 3.29 3.29 0 0 1 4.401.11z"/><path fill="#FF8B7B" d="m127.269 36.102 3.258.157-1.057-4.387s-3.031.223-3.517 1.78a.8.8 0 0 0 .029.527l.6 1.437a.79.79 0 0 0 .687.486"/><path fill="#FF8B7B" d="m133.433 33.656-.629-1.462a1.31 1.31 0 0 0-1.51-.753l-1.828.45 1.057 4.386 2.193-.884a1.3 1.3 0 0 0 .727-.717 1.3 1.3 0 0 0-.01-1.02"/><path fill="#263238" d="M103.166 96.854c-3.458-15.212-5.597-33.553-5.597-33.553l14.181-.227s-.197 24.717-.168 35.07c.037 10.767.783 34.46.783 34.46h-4.303s-5.554-22.443-4.896-35.75"/><path fill="#000" d="m102.062 75.866-2.244 3.327c.669 4.153 1.462 8.726 2.387 13.208.388-6.887.322-14.89-.143-16.535"/><path fill="#263238" d="M118.104 134.714s-5.926-1.397-6.372-2.336h-3.29l.022 3.484h2.032l.311-.322.516.322c1.645 0 6.017-.066 7.052-.435a.77.77 0 0 0-.271-.713M89.976 96.426c1.642-15.3 1.59-25.52 3.59-33.06l12.913-.193s-5.378 24.267-7.875 34.365c-2.497 10.097-6.77 35.059-6.77 35.059h-3.985s-1.254-24.34 2.127-36.17Z"/><path fill="#E0E0E0" d="M92.543 66.346c-.286 1.828-1.302 12.642-2.355 16.58 8.61 3.82 21.771 2.317 22.177-.161-.121-4.592-.366-16.419-.366-16.419z"/><path fill="#000" d="M93.022 68.353a13 13 0 0 0 2.16 2.65s-1.857-.332-2.16-2.65m17.306 2.548a10.7 10.7 0 0 0 1.192-2.365s.084 1.868-1.192 2.365m-17.226-1.169c.199.732.492 1.435.874 2.09a1.93 1.93 0 0 1-.874-2.09" opacity=".1"/><path fill="#263238" d="M95.548 134.714s-3.696-1.397-4.12-2.336h-3.29l-.066 3.484h2.694l.318-.322.508.322c1.645 0 3.162-.066 4.208-.435a.75.75 0 0 0-.252-.713m-2.457-101.87c4.563-.566 11.077-.511 15.446.242a5.29 5.29 0 0 1 4.292 4.449c.917 6.599.128 18.13-.457 29.736-9.981 3.415-20.51-.047-20.51-.047-.365-2.34.454-10.014 1.002-14.108-.822-4.23-2.559-9.074-3.721-14.693a4.604 4.604 0 0 1 3.948-5.579"/><path fill="#fff" d="M93.091 32.844c4.563-.566 11.077-.511 15.446.242a5.29 5.29 0 0 1 4.292 4.449c.917 6.599.128 18.13-.457 29.736-9.981 3.415-20.51-.047-20.51-.047-.365-2.34.454-10.014 1.002-14.108-.822-4.23-2.559-9.074-3.721-14.693a4.604 4.604 0 0 1 3.948-5.579" opacity=".1"/><path fill="#FF8B7B" d="m97.606 24.133 5.191 4.259c-.672 1.787-.884 3.655 2.048 4.361.731.969-.366 2.669-1.668 3.33-3.078-.701-4.85-1.528-6.046-3.17.376-1.286.976-6.137.475-8.78"/><path fill="#000" d="m99.77 25.91 3.027 2.478a6.7 6.7 0 0 0-.365 1.28c-1.174.084-2.804-1.097-2.877-2.172a4.4 4.4 0 0 1 .215-1.587Z" opacity=".2"/><path fill="#FF8B7B" d="M96.86 21.23c.475 3.257.585 5.188 2.38 6.716 2.702 2.3 6.621.427 7.133-2.925.457-3.009-.395-7.83-3.711-8.84a4.537 4.537 0 0 0-5.802 5.049"/><path fill="#263238" d="M96.83 22.733a2.56 2.56 0 0 0 2.695.69c-.782-.793-.022-3.695-.804-4.876 1.514.3 7.407 1.155 7.97-.889.61-2.193-1.828-3.944-3.196-4.109.403.914.366 1.576-1.133 1.28s-7.677-1.722-6.993 1.173c-1.99 0-2.124 2.896-.67 4.281a15 15 0 0 1 2.132 2.45Z"/><path fill="#263238" d="M95.734 15.863c-1.192-.296-.819-1.393-.552-1.506-1.115.27-1.52 1.367-.175 1.872 1.345.504.727-.366.727-.366"/><path fill="#FF8B7B" d="M95.943 23.23a2.83 2.83 0 0 0 1.396 1.67c.896.457 1.546-.296 1.462-1.239-.069-.852-.614-2.113-1.594-2.193a1.29 1.29 0 0 0-1.264 1.762"/><path fill="#263238" d="M101.434 21.347c.022.267.182.472.365.457s.3-.249.278-.512-.183-.472-.366-.457c-.182.015-.299.245-.277.512m3.187-.077c.022.267.183.472.366.454.183-.019.296-.245.274-.512s-.183-.468-.365-.454c-.183.015-.296.245-.275.512"/><path fill="#FF5652" d="M103.974 21.628a9.4 9.4 0 0 0 1.463 2.165c-.435.482-1.254.365-1.254.365z"/><path fill="#263238" d="M100.94 20.499a.14.14 0 0 1-.077 0 .154.154 0 0 1-.087-.205 1.57 1.57 0 0 1 1.063-.972.158.158 0 1 1 .063.31 1.25 1.25 0 0 0-.838.78.16.16 0 0 1-.05.059.16.16 0 0 1-.074.028m5.531-.424a.15.15 0 0 1-.131-.073 1.24 1.24 0 0 0-.947-.618.16.16 0 0 1-.143-.1.2.2 0 0 1-.011-.061.16.16 0 0 1 .165-.154 1.56 1.56 0 0 1 1.206.768.16.16 0 0 1 .018.118.16.16 0 0 1-.069.098.13.13 0 0 1-.088.022"/><path fill="#E0E0E0" d="M97.13 32.914s5.327 8.094 7.353 13.804c1.996-6.7 2.226-12.064.365-13.965-.599.757-3.012 1.78-7.717.16Zm-1.816 5.981-.516 1.462-.511 1.521a75 75 0 0 0-.94 3.027q-.217.752-.391 1.488c-.117.49-.23.976-.311 1.44-.08.465-.142.914-.183 1.316q-.03.462 0 .925l-.19-.533c-.153-.29-.31-.366-.318-.366-.007 0 .051.073.165.154q.512.301 1.078.482 1.46.49 2.972.782c1.071.212 2.175.366 3.29.549s2.263.31 3.367.468h.052a1.65 1.65 0 0 1 .084 3.25 36 36 0 0 1-3.601.497 38 38 0 0 1-3.656.157 23 23 0 0 1-3.875-.34 11.2 11.2 0 0 1-2.194-.647 6 6 0 0 1-1.323-.753 4.8 4.8 0 0 1-1.426-1.689 2 2 0 0 1-.15-.388l-.04-.15a10.2 10.2 0 0 1-.347-2.438q-.027-1.031.077-2.058.175-1.877.603-3.71a41 41 0 0 1 .943-3.481 39 39 0 0 1 1.232-3.389 3.29 3.29 0 0 1 6.145 2.343l-.036.08Z"/><path fill="#FF8B7B" d="m103.346 52.081 3.231.402-1.784 4.135s-2.95-.73-3.162-2.354a.77.77 0 0 1 .121-.512l.833-1.312a.79.79 0 0 1 .761-.359m5.655 3.462-.87 1.346a1.31 1.31 0 0 1-1.616.482l-1.722-.753 1.784-4.135 2.015 1.247a1.3 1.3 0 0 1 .585.82 1.3 1.3 0 0 1-.176.993"/><path fill="#FAFAFA" d="M97.39 31.656a3.04 3.04 0 0 0-1.766.95 10.6 10.6 0 0 0 5.85 3.913c-.168-.56.336-2.194.892-2.779-2.044-.303-4.976-2.084-4.976-2.084"/><path fill="#FAFAFA" d="M103.006 31.857a5 5 0 0 1 1.934.794s2.047 2.285-.366 3.575c.164-.56-1.097-2.05-2.226-2.486 2.04-.303.658-1.883.658-1.883"/><path fill="#8A1114" d="M102.574 35.042c-1.616-.867-3.615-1.806-3.06-.29.556 1.518-.179 2.044.545 2.56.724.515 2.194-.9 2.68-1.097s-.165-1.173-.165-1.173m1.145-.012c1.232-.83 2.774-1.729 2.5-.248-.274 1.48.406 1.996-.132 2.497-.537.5-1.919-.9-2.358-1.097-.438-.197-.01-1.151-.01-1.151Z"/><path fill="#8A1114" d="M102.355 34.925c.365-.22 1.257-.497 1.7.098.442.596.3 1.594-.311 1.715a1.23 1.23 0 0 1-1.192-.42 1.095 1.095 0 0 0-.197-1.393"/><path fill="#000" d="m92.056 132.714-4.434.124-.234-2.511 5.151.307zm20.466-.007-4.789.131-.531-2.175 5.349-.519z"/><path fill="#fff" d="M102.084 51.23a30 30 0 0 0-6.88-1.189c-.497.03-.687 11.264-.647 15.86 0 .62 7.151.496 8.979.215.102-1.283.124-10.65.599-13.578a1.04 1.04 0 0 0-.621-1.119 2.9 2.9 0 0 0-1.43-.19Z"/><path fill="#8A1114" d="M139.516 33.247h-20.297v.577h20.297zm-.424.577h-19.449l.746.406h17.961z"/><path fill="#000" d="M139.092 33.824h-19.449l.746.406h17.961z" opacity=".2"/><path fill="#8A1114" d="M130.205 25.087a.84.84 0 0 1-.998.825.836.836 0 0 1-.305-1.517.838.838 0 0 1 1.303.692m7.937 5.48a9.2 9.2 0 0 0-3.079-4.416l.227-.29a9.6 9.6 0 0 1 3.203 4.596zm-4.347-5.257a9 9 0 0 0-1.276-.581l.124-.344a9.6 9.6 0 0 1 1.327.618z"/><path fill="#8A1114" d="M129.368 25.087a8.303 8.303 0 0 0-8.303 8.302h16.605a8.3 8.3 0 0 0-8.302-8.302"/><path fill="#fff" d="M122.21 32.647h2.146a.32.32 0 0 0 .31-.263c.432-2.274 1.788-4.256 3.945-5.977a.286.286 0 0 0 .085-.338.29.29 0 0 0-.301-.174 7.58 7.58 0 0 0-6.503 6.394.32.32 0 0 0 .077.251.32.32 0 0 0 .241.107" opacity=".3"/><path fill="#263238" d="M102.954 25.109q.257.011.512-.026a.1.1 0 0 0 .056-.037.1.1 0 0 0 .014-.065.104.104 0 0 0-.11-.077 2.56 2.56 0 0 1-2.128-.665.09.09 0 0 0-.098-.02.1.1 0 0 0-.03.02.1.1 0 0 0-.024.064q0 .036.024.064a2.72 2.72 0 0 0 1.784.742"/><path fill="#fff" d="m201.212 64.5-2.808-10.728-2.808 10.728h-4.584l-4.368-17.232h4.44l2.328 10.272 2.736-10.272h4.584l2.64 10.32 2.352-10.32h4.44L205.772 64.5zm12.48-6.768h7.32l1.176 3.576h-9.696zm7.728 6.768-4.032-12.24-4.152 12.24h-4.584l6.384-17.232h4.968l6.312 17.232zm11.257 0h-4.536V47.268h4.536zm11.858 0h-4.536V51.372h-5.28v-4.104h15.096v4.104h-5.28zm19.517-3.936V64.5H251.86V47.268h12.024v3.936h-7.488v2.472h6.792v3.936h-6.792v2.952zm7.133 3.936h-4.536V47.268h7.056q3.504 0 5.4 1.512 1.92 1.488 1.92 4.248 0 1.656-.96 2.976-.936 1.296-2.688 2.04l4.224 6.456h-5.4l-3.528-5.736h-1.488zm0-13.488v4.008h2.328q1.512 0 2.232-.48t.72-1.512-.72-1.512q-.72-.504-2.232-.504zm14.76 7.368h8.544l.36.984h-9.528zm10.368 6.12-6.216-16.008-6.24 16.008h-1.152l6.792-17.232h1.272l6.744 17.232zm9.376-6.6h-4.224v6.6h-1.176V47.268h5.4q1.656 0 2.928.624a4.7 4.7 0 0 1 2.016 1.8q.744 1.176.744 2.88c0 1.704-.248 2.104-.744 2.904a4.64 4.64 0 0 1-2.016 1.824q-1.272.6-2.928.6m-.024-9.624h-4.2v8.64h4.2q2.064 0 3.312-1.128t1.248-3.192q0-2.088-1.248-3.192-1.248-1.128-3.312-1.128m14.017 9.624h-4.224v6.6h-1.176V47.268h5.4q1.656 0 2.928.624a4.7 4.7 0 0 1 2.016 1.8q.744 1.176.744 2.88c0 1.704-.248 2.104-.744 2.904a4.64 4.64 0 0 1-2.016 1.824q-1.272.6-2.928.6m-.024-9.624h-4.2v8.64h4.2q2.064 0 3.312-1.128t1.248-3.192q0-2.088-1.248-3.192-1.248-1.128-3.312-1.128"/><path fill="#fff" d="M197.479 93.74a5.67 5.67 0 0 1-4.144-1.744 5.8 5.8 0 0 1-1.216-1.904 6.4 6.4 0 0 1-.432-2.352q0-1.248.432-2.336a5.8 5.8 0 0 1 1.216-1.904 5.5 5.5 0 0 1 1.84-1.264 5.7 5.7 0 0 1 2.304-.464q1.248 0 2.304.464a5.5 5.5 0 0 1 1.84 1.264 5.7 5.7 0 0 1 1.232 1.904 6.3 6.3 0 0 1 .432 2.336q0 1.248-.432 2.352a5.7 5.7 0 0 1-1.232 1.904 5.67 5.67 0 0 1-4.144 1.744m0-1.072a4.5 4.5 0 0 0 1.856-.368 4.4 4.4 0 0 0 1.44-1.056 4.8 4.8 0 0 0 .928-1.584 5.4 5.4 0 0 0 .336-1.92 5.4 5.4 0 0 0-.336-1.92 4.5 4.5 0 0 0-.928-1.552 4.2 4.2 0 0 0-1.44-1.04 4.4 4.4 0 0 0-1.856-.384q-1.008 0-1.856.384a4.2 4.2 0 0 0-1.44 1.04q-.608.656-.944 1.552a5.7 5.7 0 0 0-.32 1.92q0 1.025.32 1.92.336.895.944 1.584.608.672 1.44 1.056a4.6 4.6 0 0 0 1.856.368m12.571-3.328h5.552l.336.976h-6.368zm6.592 4.16-3.872-10.208-3.904 10.208h-1.184l4.464-11.488h1.312l4.448 11.488zm10.63-4.224q0 1.296-.464 2.288-.448.992-1.28 1.552-.816.544-1.952.544a3.1 3.1 0 0 1-1.712-.496q-.768-.496-1.2-1.392v4.816h-1.12v-11.52h1.04v1.824q.432-.945 1.232-1.456a3.13 3.13 0 0 1 1.76-.528q1.12 0 1.952.56.832.544 1.28 1.536.464.976.464 2.272m-1.136 0q0-1.6-.768-2.496-.752-.896-1.984-.896-.768 0-1.392.4T221 87.436q-.352.752-.352 1.84 0 1.04.352 1.808c.352.768.56.907.976 1.184a2.5 2.5 0 0 0 1.408.416q1.232 0 1.984-.896.768-.896.768-2.512m10.667 0q0 1.296-.464 2.288-.447.992-1.28 1.552-.815.544-1.952.544a3.1 3.1 0 0 1-1.712-.496q-.768-.496-1.2-1.392v4.816h-1.12v-11.52h1.04v1.824q.432-.945 1.232-1.456a3.13 3.13 0 0 1 1.76-.528q1.12 0 1.952.56.833.544 1.28 1.536.465.976.464 2.272m-1.136 0q0-1.6-.768-2.496-.751-.896-1.984-.896-.768 0-1.392.4t-.992 1.152q-.352.752-.352 1.84 0 1.04.352 1.808t.976 1.184 1.408.416q1.233 0 1.984-.896.768-.896.768-2.512m5.659 0q0-1.296.448-2.272.465-.991 1.296-1.536.833-.56 1.968-.56.944 0 1.712.512.768.495 1.184 1.408v-4.816h1.12V93.5h-1.04v-1.776a3.5 3.5 0 0 1-1.232 1.424 3.07 3.07 0 0 1-1.744.512q-1.136 0-1.968-.544-.831-.56-1.296-1.552-.447-.992-.448-2.288m1.136 0q0 1.616.752 2.512.753.896 1.984.896.832 0 1.44-.416.624-.416.96-1.184.352-.784.352-1.84t-.368-1.808q-.352-.752-.976-1.152-.607-.4-1.408-.4-1.231 0-1.984.896t-.752 2.496m12.396 4.384q-.865 0-1.6-.32a3.7 3.7 0 0 1-1.28-.912 4.4 4.4 0 0 1-.832-1.392 5.2 5.2 0 0 1-.288-1.76q0-.944.288-1.744.304-.8.832-1.376a3.7 3.7 0 0 1 1.28-.912 4 4 0 0 1 1.6-.32q.88 0 1.616.32t1.264.912q.544.576.832 1.376.303.8.304 1.744a4.9 4.9 0 0 1-.304 1.76 4.1 4.1 0 0 1-.832 1.392 3.6 3.6 0 0 1-1.264.912q-.737.32-1.616.32m0-.96q.831 0 1.472-.416a2.9 2.9 0 0 0 1.024-1.2q.384-.768.384-1.808t-.384-1.792a2.8 2.8 0 0 0-1.024-1.168 2.64 2.64 0 0 0-1.472-.416 2.7 2.7 0 0 0-1.472.416 2.96 2.96 0 0 0-1.024 1.168q-.368.752-.368 1.792t.368 1.808q.384.768 1.024 1.2a2.7 2.7 0 0 0 1.472.416m14.403 1.04q-1.233 0-2.288-.448a5.8 5.8 0 0 1-1.856-1.248 5.8 5.8 0 0 1-1.232-1.888 6.5 6.5 0 0 1-.432-2.4q0-1.28.415-2.352a6 6 0 0 1 1.201-1.904 5.3 5.3 0 0 1 1.808-1.28 5.8 5.8 0 0 1 2.304-.448q1.503 0 2.64.56a5.5 5.5 0 0 1 1.888 1.504 5.8 5.8 0 0 1 1.072 2.112h-1.36a4.4 4.4 0 0 0-.8-1.568 4 4 0 0 0-1.44-1.12q-.865-.416-2.032-.416-1.312 0-2.32.64-1.008.624-1.584 1.728-.56 1.105-.56 2.56 0 1.408.576 2.528a4.36 4.36 0 0 0 1.616 1.76q1.04.64 2.416.64 1.248 0 2.176-.48a3.9 3.9 0 0 0 1.488-1.392q.576-.896.72-2.096h-4.512v-.976h5.76q0 1.36-.416 2.464a5.5 5.5 0 0 1-1.152 1.904 5.06 5.06 0 0 1-1.792 1.2q-1.025.416-2.304.416m12.702-.24v-1.536a2.9 2.9 0 0 1-1.104 1.248q-.736.448-1.728.448-1.313 0-2.096-.672-.784-.688-.784-1.824 0-1.232.976-1.856.975-.64 2.896-.64.383 0 .752.016.367.015.976.08v-.72q0-1.056-.544-1.648-.528-.592-1.488-.592-1.024 0-1.632.608-.609.592-.625 1.616h-1.023q.015-.944.432-1.632.416-.704 1.136-1.088.736-.4 1.696-.4 1.488 0 2.304.816t.816 2.288V93.5zm-4.64-2.368q0 .768.544 1.248.543.465 1.424.464 1.184 0 1.872-.704.688-.72.688-1.904v-.752a18 18 0 0 0-1.68-.08q-1.425 0-2.144.432-.705.416-.704 1.296m9.076-2.144V93.5h-1.12v-8.432h1.04v1.92a3.6 3.6 0 0 1 1.312-1.488 3.43 3.43 0 0 1 1.904-.56v1.168a3.43 3.43 0 0 0-1.6.304 2.65 2.65 0 0 0-1.12.992q-.417.656-.416 1.584m7.641 4.688q-1.12 0-1.968-.56t-1.328-1.552-.48-2.288q0-1.28.48-2.256.48-.992 1.328-1.552.864-.56 1.968-.56a3.7 3.7 0 0 1 1.76.416q.784.416 1.28 1.184.512.768.672 1.824h-1.136q-.192-1.152-.88-1.792-.672-.656-1.696-.656-.785 0-1.392.432-.592.432-.928 1.184-.32.752-.32 1.776c0 1.024.107 1.285.32 1.808q.336.768.928 1.2.608.416 1.392.416 1.04 0 1.712-.64.672-.656.864-1.824h1.136q-.144 1.072-.656 1.84a3.4 3.4 0 0 1-1.28 1.184q-.784.416-1.776.416m1.584 1.712q0 .576-.464.928t-1.168.352c-.704 0-.869-.117-1.2-.352q-.48-.352-.576-1.008H293q.08.368.336.544.256.192.64.192.352 0 .56-.208a.6.6 0 0 0 .224-.48q0-.352-.208-.56a1.1 1.1 0 0 0-.512-.272 1.8 1.8 0 0 0-.688-.032l.368-1.152h.672l-.256.752q.656.048 1.072.4t.416.896m7.187-1.728q-.865 0-1.6-.32a3.7 3.7 0 0 1-1.28-.912 4.4 4.4 0 0 1-.832-1.392 5.2 5.2 0 0 1-.288-1.76q0-.944.288-1.744.303-.8.832-1.376a3.7 3.7 0 0 1 1.28-.912 4 4 0 0 1 1.6-.32q.88 0 1.616.32.735.32 1.264.912.543.576.832 1.376.303.8.304 1.744a4.9 4.9 0 0 1-.304 1.76 4.1 4.1 0 0 1-.832 1.392 3.6 3.6 0 0 1-1.264.912q-.737.32-1.616.32m0-.96q.831 0 1.472-.416a2.9 2.9 0 0 0 1.024-1.2q.384-.768.384-1.808t-.384-1.792a2.8 2.8 0 0 0-1.024-1.168 2.64 2.64 0 0 0-1.472-.416 2.7 2.7 0 0 0-1.472.416 2.96 2.96 0 0 0-1.024 1.168q-.368.752-.368 1.792t.368 1.808q.384.768 1.024 1.2a2.7 2.7 0 0 0 1.472.416m6.947.8h-1.12v-8.432h1.04v1.584q.432-.815 1.136-1.28a2.9 2.9 0 0 1 1.616-.464q.992 0 1.68.512.703.511.96 1.44a3.23 3.23 0 0 1 1.152-1.424 3.03 3.03 0 0 1 1.76-.528q1.313 0 2.064.832.768.816.768 2.288V93.5h-1.104v-5.104q0-1.216-.544-1.856-.528-.656-1.552-.656a2.06 2.06 0 0 0-1.168.352 2.43 2.43 0 0 0-.848.944q-.304.592-.304 1.376V93.5h-1.12v-5.104q0-1.216-.528-1.856-.528-.656-1.568-.656-.64 0-1.184.352a2.3 2.3 0 0 0-.832.944q-.304.592-.304 1.376z" opacity=".9"/></svg>